# Made in Blockbench 4.12.6
mtllib Cube.mtl

o cuboid
v 0.5 1 0.5
v 0.5 1 -0.5
v 0.5 0 0.5
v 0.5 0 -0.5
v -0.5 1 0.5
v -0.5 1 -0.5
v -0.5 0 0.5
v -0.5 0 -0.5
v 0.4375 1.03125 0.4375
v 0.4375 1.03125 -0.4375
v -0.4375 1.03125 0.4375
v -0.4375 1.03125 -0.4375
v -0.53125 0.9375 0.4375
v -0.53125 0.9375 -0.4375
v -0.53125 0.0625 0.4375
v -0.53125 0.0625 -0.4375
v 0.4375 0.9375 0.53125
v -0.4375 0.9375 0.53125
v 0.4375 0.0625 0.53125
v -0.4375 0.0625 0.53125
v 0.53125 0.9375 0.4375
v 0.53125 0.0625 0.4375
v 0.53125 0.9375 -0.4375
v 0.53125 0.0625 -0.4375
v 0.4375 0.9375 -0.5312500000000001
v 0.4375 0.0625 -0.5312500000000001
v -0.4375 0.9375 -0.5312500000000001
v -0.4375 0.0625 -0.5312500000000001
v 0.4375 -0.03125000000000011 0.4375
v -0.4375 -0.03125000000000011 0.4375
v 0.4375 -0.03125000000000011 -0.4375
v -0.4375 -0.03125000000000011 -0.4375
vt 0.5234375 0.98253125
vt 0.3046875 0.98253125
vt 0.3046875 0.76378125
vt 0.5234375 0.76378125
vt 0.5234375 0.48253124999999997
vt 0.5234375 0.70128125
vt 0.3046875 0.70128125
vt 0.3046875 0.48253124999999997
vt 0.0234375 0.7637796875
vt 0.2421875 0.7637796875
vt 0.2421875 0.9825296875
vt 0.0234375 0.9825296875
vt 0.2421875 0.4705953125
vt 0.2421875 0.6893453125
vt 0.0234375 0.6893453125
vt 0.0234375 0.4705953125
vt 0.2421875 0.20128124999999997
vt 0.2421875 0.42003124999999997
vt 0.0234375 0.42003124999999997
vt 0.0234375 0.20128124999999997
vt 0.8046875 0.98253125
vt 0.5859375 0.98253125
vt 0.5859375 0.76378125
vt 0.8046875 0.76378125
vt 0.2421875 0.7637796875
vt 0.0234375 0.7637796875
vt 0.0078125 0.7463093749999999
vt 0.2578125 0.7463093749999999
vt 0.2421875 0.9825296875
vt 0.2421875 0.7637796875
vt 0.25965781250000003 0.7481546875
vt 0.25965781250000003 0.9981546875
vt 0.0234375 0.9825296875
vt 0.2421875 0.9825296875
vt 0.2578125 1
vt 0.0078125 1
vt 0.0234375 0.7637796875
vt 0.023437499999999986 0.9825296875
vt 0.005967187499999971 0.9981546875
vt 0.0059671874999999985 0.7481546875
vt 0.5234375 0.70128125
vt 0.5234375 0.48253124999999997
vt 0.54090625 0.46690624999999997
vt 0.54090625 0.71690625
vt 0.3046875 0.70128125
vt 0.5234375 0.70128125
vt 0.5390625 0.71875
vt 0.2890625 0.71875
vt 0.3046875 0.48253124999999997
vt 0.3046875 0.70128125
vt 0.28721874999999997 0.71690625
vt 0.28721874999999997 0.46690624999999997
vt 0.5234375 0.48253124999999997
vt 0.3046875 0.48253124999999997
vt 0.2890625 0.46506249999999993
vt 0.5390625 0.46506249999999993
vt 0.2421875 0.42003124999999997
vt 0.2421875 0.20128124999999997
vt 0.25965625000000003 0.18565624999999997
vt 0.25965625000000003 0.43565624999999997
vt 0.0234375 0.42003124999999997
vt 0.2421875 0.42003124999999997
vt 0.2578125 0.4375
vt 0.0078125 0.4375
vt 0.0234375 0.20128124999999997
vt 0.0234375 0.42003124999999997
vt 0.005968749999999995 0.43565624999999997
vt 0.005968749999999995 0.18565624999999997
vt 0.2421875 0.20128124999999997
vt 0.0234375 0.20128124999999997
vt 0.0078125 0.18381249999999993
vt 0.2578125 0.18381249999999993
vt 0.3046875 0.98253125
vt 0.5234375 0.98253125
vt 0.5390625 1
vt 0.2890625 1
vt 0.3046875 0.76378125
vt 0.3046875 0.98253125
vt 0.28721874999999997 0.99815625
vt 0.28721874999999997 0.74815625
vt 0.5234375 0.76378125
vt 0.3046875 0.76378125
vt 0.2890625 0.7463124999999999
vt 0.5390625 0.7463124999999999
vt 0.5234375 0.98253125
vt 0.5234375 0.76378125
vt 0.54090625 0.74815625
vt 0.54090625 0.99815625
vt 0.5859375 0.98253125
vt 0.8046875 0.98253125
vt 0.8203125 1
vt 0.5703125 1
vt 0.5859375 0.76378125
vt 0.5859375 0.98253125
vt 0.56846875 0.99815625
vt 0.56846875 0.74815625
vt 0.8046875 0.76378125
vt 0.5859375 0.76378125
vt 0.5703125 0.7463124999999999
vt 0.8203125 0.7463124999999999
vt 0.8046875 0.98253125
vt 0.8046875 0.76378125
vt 0.82215625 0.74815625
vt 0.82215625 0.99815625
vt 0.2421875 0.6893453125
vt 0.24218749999999994 0.4705953125
vt 0.2596578125 0.4549703125
vt 0.25965781250000003 0.7049703125
vt 0.0234375 0.6893453125
vt 0.2421875 0.6893453125
vt 0.2578125 0.706815625
vt 0.0078125 0.706815625
vt 0.023437499999999986 0.4705953125
vt 0.0234375 0.6893453125
vt 0.0059671874999999985 0.7049703125
vt 0.005967187499999971 0.4549703125
vt 0.2421875 0.4705953125
vt 0.0234375 0.4705953125
vt 0.0078125 0.453125
vt 0.2578125 0.453125
vn 1 0 0
vn -1 0 0
vn 0 1 0
vn 0 -1 0
vn 0 0 1
vn 0 0 -1
vn 0 0.8944271909999154 0.4472135954999593
vn 0.4472135954999593 0.8944271909999154 0
vn 0 0.8944271909999154 -0.4472135954999593
vn -0.4472135954999593 0.8944271909999154 0
vn -0.8944271909999161 0 0.44721359549995804
vn -0.8944271909999161 0.44721359549995804 0
vn -0.8944271909999161 0 -0.44721359549995804
vn -0.8944271909999161 -0.44721359549995804 0
vn 0.44721359549995804 0 0.8944271909999161
vn 0 0.44721359549995804 0.8944271909999161
vn -0.44721359549995804 0 0.8944271909999161
vn 0 -0.44721359549995804 0.8944271909999161
vn 0.8944271909999161 0.44721359549995804 0
vn 0.8944271909999161 0 0.44721359549995804
vn 0.8944271909999161 -0.44721359549995804 0
vn 0.8944271909999161 0 -0.44721359549995804
vn 0 0.4472135954999593 -0.8944271909999154
vn 0.4472135954999593 0 -0.8944271909999154
vn 0 -0.4472135954999593 -0.8944271909999154
vn -0.4472135954999593 0 -0.8944271909999154
vn 0.4472135954999593 -0.8944271909999154 0
vn 0 -0.8944271909999154 0.4472135954999593
vn -0.4472135954999593 -0.8944271909999154 0
vn 0 -0.8944271909999154 -0.4472135954999593
usemtl m_f3c055b2-be9b-bfd8-2b38-22419c1cc68f
f 23/1/1 21/2/1 22/3/1 24/4/1
f 15/5/2 13/6/2 14/7/2 16/8/2
f 11/9/3 9/10/3 10/11/3 12/12/3
f 31/13/4 29/14/4 30/15/4 32/16/4
f 19/17/5 17/18/5 18/19/5 20/20/5
f 27/21/6 25/22/6 26/23/6 28/24/6
f 9/25/7 11/26/7 5/27/7 1/28/7
f 10/29/8 9/30/8 1/31/8 2/32/8
f 12/33/9 10/34/9 2/35/9 6/36/9
f 11/37/10 12/38/10 6/39/10 5/40/10
f 13/41/11 15/42/11 7/43/11 5/44/11
f 14/45/12 13/46/12 5/47/12 6/48/12
f 16/49/13 14/50/13 6/51/13 8/52/13
f 15/53/14 16/54/14 8/55/14 7/56/14
f 17/57/15 19/58/15 3/59/15 1/60/15
f 18/61/16 17/62/16 1/63/16 5/64/16
f 20/65/17 18/66/17 5/67/17 7/68/17
f 19/69/18 20/70/18 7/71/18 3/72/18
f 21/73/19 23/74/19 2/75/19 1/76/19
f 22/77/20 21/78/20 1/79/20 3/80/20
f 24/81/21 22/82/21 3/83/21 4/84/21
f 23/85/22 24/86/22 4/87/22 2/88/22
f 25/89/23 27/90/23 6/91/23 2/92/23
f 26/93/24 25/94/24 2/95/24 4/96/24
f 28/97/25 26/98/25 4/99/25 8/100/25
f 27/101/26 28/102/26 8/103/26 6/104/26
f 29/105/27 31/106/27 4/107/27 3/108/27
f 30/109/28 29/110/28 3/111/28 7/112/28
f 32/113/29 30/114/29 7/115/29 8/116/29
f 31/117/30 32/118/30 8/119/30 4/120/30